REM DIRINDEX 1\2,1\3,1\4
REM DIRNAME cjc153,folder01,folder02,folder03
TITLE ""
FILE "Track22.mp3" MP3
  TRACK 01 AUDIO
    TITLE "4:cjc153_1324"
    INDEX 01 00:00:00
  TRACK 02 AUDIO
    TITLE "0:"
    INDEX 01 00:01:71
  TRACK 03 AUDIO
    TITLE "2:cjc153_1325"
    INDEX 01 00:02:55
  TRACK 04 AUDIO
    TITLE "0:"
    INDEX 01 00:03:45
  TRACK 05 AUDIO
    TITLE "3:cjc153_1326"
    INDEX 01 00:04:17
  TRACK 06 AUDIO
    TITLE "0:"
    INDEX 01 00:05:09
  TRACK 07 AUDIO
    TITLE "2:cjc153_1327"
    INDEX 01 00:06:02
  TRACK 08 AUDIO
    TITLE "0:"
    INDEX 01 00:07:17
  TRACK 09 AUDIO
    TITLE "3:cjc153_1328"
    INDEX 01 00:07:51
  TRACK 10 AUDIO
    TITLE "0:"
    INDEX 01 00:08:68
  TRACK 11 AUDIO
    TITLE "2:cjc153_1329"
    INDEX 01 00:09:38
  TRACK 12 AUDIO
    TITLE "0:"
    INDEX 01 00:10:39
  TRACK 13 AUDIO
    TITLE "3:cjc153_1330"
    INDEX 01 00:10:70
  TRACK 14 AUDIO
    TITLE "0:"
    INDEX 01 00:12:03
  TRACK 15 AUDIO
    TITLE "2:cjc153_1331"
    INDEX 01 00:12:48
  TRACK 16 AUDIO
    TITLE "0:"
    INDEX 01 00:13:53
  TRACK 17 AUDIO
    TITLE "3:cjc153_1332"
    INDEX 01 00:14:09
  TRACK 18 AUDIO
    TITLE "0:"
    INDEX 01 00:15:23
  TRACK 19 AUDIO
    TITLE "2:cjc153_1333"
    INDEX 01 00:15:68
  TRACK 20 AUDIO
    TITLE "0:"
    INDEX 01 00:17:02
  TRACK 21 AUDIO
    TITLE "3:cjc153_1334"
    INDEX 01 00:17:33
  TRACK 22 AUDIO
    TITLE "0:"
    INDEX 01 00:18:50
  TRACK 23 AUDIO
    TITLE "2:cjc153_1335"
    INDEX 01 00:19:20
  TRACK 24 AUDIO
    TITLE "0:"
    INDEX 01 00:20:20
  TRACK 25 AUDIO
    TITLE "3:cjc153_1336"
    INDEX 01 00:20:51
  TRACK 26 AUDIO
    TITLE "0:"
    INDEX 01 00:21:57
  TRACK 27 AUDIO
    TITLE "2:cjc153_1337"
    INDEX 01 00:22:25
  TRACK 28 AUDIO
    TITLE "0:"
    INDEX 01 00:23:24
  TRACK 29 AUDIO
    TITLE "3:cjc153_1338"
    INDEX 01 00:23:55
  TRACK 30 AUDIO
    TITLE "0:"
    INDEX 01 00:24:53
  TRACK 31 AUDIO
    TITLE "2:cjc153_1339"
    INDEX 01 00:25:23
  TRACK 32 AUDIO
    TITLE "0:"
    INDEX 01 00:26:26
  TRACK 33 AUDIO
    TITLE "3:cjc153_1340"
    INDEX 01 00:26:60
  TRACK 34 AUDIO
    TITLE "0:"
    INDEX 01 00:27:71
  TRACK 35 AUDIO
    TITLE "2:cjc153_1341"
    INDEX 01 00:28:41
  TRACK 36 AUDIO
    TITLE "0:"
    INDEX 01 00:29:38
  TRACK 37 AUDIO
    TITLE "3:cjc153_1342"
    INDEX 01 00:29:70
  TRACK 38 AUDIO
    TITLE "0:"
    INDEX 01 00:31:02
  TRACK 39 AUDIO
    TITLE "2:cjc153_1343"
    INDEX 01 00:31:45
  TRACK 40 AUDIO
    TITLE "0:"
    INDEX 01 00:32:50
  TRACK 41 AUDIO
    TITLE "3:cjc153_1344"
    INDEX 01 00:33:07
  TRACK 42 AUDIO
    TITLE "0:"
    INDEX 01 00:34:14
  TRACK 43 AUDIO
    TITLE "2:cjc153_1345"
    INDEX 01 00:34:59
  TRACK 44 AUDIO
    TITLE "0:"
    INDEX 01 00:35:68
  TRACK 45 AUDIO
    TITLE "3:cjc153_1346"
    INDEX 01 00:36:25
  TRACK 46 AUDIO
    TITLE "0:"
    INDEX 01 00:37:36
  TRACK 47 AUDIO
    TITLE "2:cjc153_1347"
    INDEX 01 00:38:06
  TRACK 48 AUDIO
    TITLE "0:"
    INDEX 01 00:39:17
  TRACK 49 AUDIO
    TITLE "3:cjc153_1348"
    INDEX 01 00:39:51
  TRACK 50 AUDIO
    TITLE "0:"
    INDEX 01 00:40:66
  TRACK 51 AUDIO
    TITLE "2:cjc153_1349"
    INDEX 01 00:41:36
  TRACK 52 AUDIO
    TITLE "0:"
    INDEX 01 00:42:39
  TRACK 53 AUDIO
    TITLE "3:cjc153_1350"
    INDEX 01 00:42:70
  TRACK 54 AUDIO
    TITLE "0:"
    INDEX 01 00:44:03
  TRACK 55 AUDIO
    TITLE "2:cjc153_1351"
    INDEX 01 00:44:48
  TRACK 56 AUDIO
    TITLE "0:"
    INDEX 01 00:45:53
  TRACK 57 AUDIO
    TITLE "3:cjc153_1352"
    INDEX 01 00:46:13
  TRACK 58 AUDIO
    TITLE "0:"
    INDEX 01 00:47:21
  TRACK 59 AUDIO
    TITLE "2:cjc153_1353"
    INDEX 01 00:47:68
  TRACK 60 AUDIO
    TITLE "0:"
    INDEX 01 00:48:71
  TRACK 61 AUDIO
    TITLE "3:cjc153_1354"
    INDEX 01 00:49:33
  TRACK 62 AUDIO
    TITLE "0:"
    INDEX 01 00:50:23
  TRACK 63 AUDIO
    TITLE "2:cjc153_1355"
    INDEX 01 00:51:07
  TRACK 64 AUDIO
    TITLE "0:"
    INDEX 01 00:52:08
  TRACK 65 AUDIO
    TITLE "3:cjc153_1356"
    INDEX 01 00:52:41
  TRACK 66 AUDIO
    TITLE "0:"
    INDEX 01 00:53:47
  TRACK 67 AUDIO
    TITLE "2:cjc153_1357"
    INDEX 01 00:54:15
  TRACK 68 AUDIO
    TITLE "0:"
    INDEX 01 00:55:20
  TRACK 69 AUDIO
    TITLE "3:cjc153_1358"
    INDEX 01 00:55:53
  TRACK 70 AUDIO
    TITLE "0:"
    INDEX 01 00:56:65
  TRACK 71 AUDIO
    TITLE "2:cjc153_1359"
    INDEX 01 00:57:33
  TRACK 72 AUDIO
    TITLE "0:"
    INDEX 01 00:58:44
  TRACK 73 AUDIO
    TITLE "3:cjc153_1360"
    INDEX 01 00:59:20
  TRACK 74 AUDIO
    TITLE "0:"
    INDEX 01 01:00:29
  TRACK 75 AUDIO
    TITLE "2:cjc153_1361"
    INDEX 01 01:00:74
  TRACK 76 AUDIO
    TITLE "0:"
    INDEX 01 01:01:74
  TRACK 77 AUDIO
    TITLE "3:cjc153_1362"
    INDEX 01 01:02:30
  TRACK 78 AUDIO
    TITLE "0:"
    INDEX 01 01:03:29
  TRACK 79 AUDIO
    TITLE "2:cjc153_1363"
    INDEX 01 01:03:73
  TRACK 80 AUDIO
    TITLE "0:"
    INDEX 01 01:04:74
  TRACK 81 AUDIO
    TITLE "3:cjc153_1364"
    INDEX 01 01:05:32
  TRACK 82 AUDIO
    TITLE "0:"
    INDEX 01 01:06:38
  TRACK 83 AUDIO
    TITLE "2:cjc153_1365"
    INDEX 01 01:07:08
  TRACK 84 AUDIO
    TITLE "0:"
    INDEX 01 01:08:15
  TRACK 85 AUDIO
    TITLE "3:cjc153_1366"
    INDEX 01 01:08:48
  TRACK 86 AUDIO
    TITLE "0:"
    INDEX 01 01:09:50
  TRACK 87 AUDIO
    TITLE "2:cjc153_1367"
    INDEX 01 01:10:18
  TRACK 88 AUDIO
    TITLE "0:"
    INDEX 01 01:11:17
  TRACK 89 AUDIO
    TITLE "3:cjc153_1368"
    INDEX 01 01:11:51
  TRACK 90 AUDIO
    TITLE "0:"
    INDEX 01 01:12:56
  TRACK 91 AUDIO
    TITLE "2:cjc153_1369"
    INDEX 01 01:13:28
  TRACK 92 AUDIO
    TITLE "0:"
    INDEX 01 01:14:33
  TRACK 93 AUDIO
    TITLE "3:cjc153_1370"
    INDEX 01 01:14:65
  TRACK 94 AUDIO
    TITLE "0:"
    INDEX 01 01:16:05
  TRACK 95 AUDIO
    TITLE "2:cjc153_1371"
    INDEX 01 01:16:48
  TRACK 96 AUDIO
    TITLE "0:"
    INDEX 01 01:17:57
  TRACK 97 AUDIO
    TITLE "3:cjc153_1372"
    INDEX 01 01:18:13
  TRACK 98 AUDIO
    TITLE "0:"
    INDEX 01 01:19:23
